Coordinates
version=1
nRows=49
nColumns=12
inDegrees=yes

Units are S.I. units (second, meters, Newtons, ...)
Angles are in degrees

endheader
time	SC_y	SC_z	SC_x	AC_y	AC_z	AC_x	GH_y	GH_z	GH_yy	EL_x	PS_y
       0.0              -36.66         -1.036          77.45          32.16         -7.893          8.057         -118.9         -13.92         -168.2          28.22          37.97
   0.04637              -36.66         -1.034          77.44          32.17         -7.893          8.054         -118.9         -13.92         -168.1          28.23          37.97
   0.09275              -36.66         -1.033          77.44          32.17         -7.892           8.05         -118.9         -13.92         -168.1          28.25          37.96
    0.1391              -36.66         -1.031          77.43          32.17         -7.892          8.047         -118.9         -13.92         -168.1          28.26          37.96
    0.1855              -36.66         -1.029          77.43          32.17         -7.891          8.043         -118.9         -13.92         -168.1          28.28          37.96
    0.2319              -36.66         -1.028          77.42          32.17         -7.891          8.039         -118.9         -13.91         -168.1          28.29          37.95
    0.2782              -36.66         -1.026          77.41          32.18          -7.89          8.035         -118.9         -13.91         -168.1          28.31          37.95
    0.3246              -36.67         -1.024          77.41          32.18         -7.889          8.031         -118.9         -13.91         -168.0          28.32          37.94
     0.371              -36.67         -1.021           77.4          32.18         -7.888          8.026         -118.9         -13.91         -168.0          28.34          37.94
    0.4174              -36.67         -1.019          77.39          32.19         -7.888          8.021         -118.9         -13.91         -168.0          28.36          37.93
    0.4637              -36.67         -1.016          77.38          32.19         -7.887          8.015         -118.9         -13.91         -168.0          28.38          37.92
    0.5101              -36.67         -1.014          77.37          32.19         -7.886           8.01         -118.9          -13.9         -167.9          28.41          37.92
    0.5565              -36.67         -1.011          77.36           32.2         -7.885          8.003         -118.9          -13.9         -167.9          28.43          37.91
    0.6029              -36.67         -1.008          77.35           32.2         -7.883          7.996         -118.9          -13.9         -167.9          28.46           37.9
    0.6492              -36.67         -1.004          77.34          32.21         -7.882          7.989         -118.9          -13.9         -167.8          28.49          37.89
    0.6956              -36.68           -1.0          77.33          32.21         -7.881          7.981         -118.9         -13.89         -167.8          28.52          37.88
     0.742              -36.68        -0.9962          77.31          32.22         -7.879          7.972         -118.9         -13.89         -167.8          28.55          37.87
    0.7884              -36.68        -0.9917           77.3          32.22         -7.878          7.963         -118.9         -13.89         -167.7          28.59          37.86
    0.8347              -36.68        -0.9869          77.28          32.23         -7.876          7.952         -118.9         -13.88         -167.7          28.63          37.85
    0.8811              -36.69        -0.9815          77.26          32.23         -7.874          7.941         -118.8         -13.88         -167.6          28.68          37.84
    0.9275              -36.69        -0.9757          77.24          32.24         -7.872          7.928         -118.8         -13.88         -167.5          28.73          37.82
    0.9738              -36.69        -0.9692          77.22          32.25          -7.87          7.915         -118.8         -13.87         -167.5          28.78           37.8
      1.02              -36.69        -0.9621           77.2          32.26         -7.867          7.899         -118.8         -13.87         -167.4          28.84          37.79
     1.067               -36.7        -0.9542          77.17          32.27         -7.865          7.883         -118.8         -13.86         -167.3           28.9          37.77
     1.113               -36.7        -0.9455          77.14          32.28         -7.861          7.864         -118.8         -13.85         -167.2          28.98          37.74
     1.159              -36.71        -0.9357          77.11          32.29         -7.858          7.843         -118.8         -13.85         -167.1          29.06          37.72
     1.206              -36.71        -0.9247          77.07          32.31         -7.854          7.819         -118.8         -13.84         -167.0          29.15          37.69
     1.252              -36.72        -0.9124          77.03          32.32          -7.85          7.793         -118.8         -13.83         -166.9          29.25          37.66
     1.298              -36.72        -0.8985          76.98          32.34         -7.845          7.763         -118.8         -13.82         -166.7          29.37          37.63
     1.345              -36.73        -0.8827          76.93          32.36         -7.839           7.73         -118.8         -13.81         -166.6           29.5          37.59
     1.391              -36.74        -0.8646          76.87          32.39         -7.833          7.691         -118.7         -13.79         -166.4          29.65          37.54
     1.438              -36.75        -0.8439           76.8          32.41         -7.825          7.647         -118.7         -13.78         -166.2          29.83          37.49
     1.484              -36.76          -0.82          76.72          32.44         -7.817          7.596         -118.7         -13.76         -165.9          30.03          37.43
      1.53              -36.78        -0.7922          76.63          32.48         -7.807          7.536         -118.7         -13.74         -165.6          30.26          37.36
     1.577              -36.79        -0.7597          76.52          32.52         -7.796          7.467         -118.7         -13.72         -165.3          30.53          37.28
     1.623              -36.81        -0.7214          76.39          32.57         -7.782          7.385         -118.6         -13.69         -164.9          30.85          37.18
     1.669              -36.83        -0.6759          76.23          32.63         -7.766          7.288         -118.6         -13.65         -164.4          31.23          37.07
     1.716              -36.86        -0.6213          76.05           32.7         -7.747          7.171         -118.5         -13.61         -163.8          31.69          36.93
     1.762              -36.89        -0.5552          75.83          32.79         -7.723           7.03         -118.5         -13.57         -163.2          32.24          36.76
     1.809              -36.93        -0.4746          75.55          32.89         -7.695          6.858         -118.4         -13.51         -162.3          32.92          36.56
     1.855              -36.97         -0.375          75.22          33.02         -7.659          6.645         -118.3         -13.43         -161.3          33.75          36.31
     1.901              -37.03        -0.2508           74.8          33.18         -7.615           6.38         -118.2         -13.34         -160.0          34.79           36.0
     1.948              -37.11       -0.09442          74.27          33.39          -7.56          6.045         -118.1         -13.23         -158.4           36.1           35.6
     1.994               -37.2         0.1044           73.6          33.65         -7.489          5.621         -117.9         -13.08         -156.3          37.77           35.1
      2.04              -37.32         0.3589          72.74          33.98         -7.399          5.077         -117.7         -12.89         -153.6           39.9          34.46
     2.087              -37.48         0.6855          71.64           34.4         -7.284          4.379         -117.4         -12.65         -150.2          42.63          33.64
     2.133              -37.67          1.103          70.23          34.94         -7.136          3.488         -117.1         -12.35         -145.9          46.12          32.59
      2.18              -37.92          1.627          68.46          35.63          -6.95          2.367         -116.6         -11.96         -140.4          50.51          31.26
     2.226              -38.23          2.266           66.3          36.46         -6.723          1.001         -116.1         -11.49         -133.8          55.86          29.65
